<svg xmlns="http://www.w3.org/2000/svg" viewBox="0 0 65.63 57.63"><defs><style>.cls-1{fill:#ff4aca;}.cls-2{fill:#cd00aa;}.cls-3{fill:#ff81db;}.cls-4{fill:#ff00ca;}</style></defs><title>diamond</title><g id="Layer_2" data-name="Layer 2"><g id="Layer_1-2" data-name="Layer 1"><polygon class="cls-1" points="52.09 0 34.62 0 46.24 17.5 52.09 0"/><polygon class="cls-2" points="17.71 22.19 0.26 22.19 28.86 55.52 17.71 22.19"/><polygon class="cls-1" points="19.4 17.52 31.13 0 13.54 0 19.4 17.52"/><polygon class="cls-3" points="21.91 19.25 43.73 19.25 32.87 2.88 21.91 19.25"/><polygon class="cls-3" points="32.81 57.63 44.67 22.19 20.96 22.19 32.81 57.63"/><polygon class="cls-4" points="0 19.25 16.73 19.25 10.87 1.74 0 19.25"/><polygon class="cls-4" points="48.9 19.25 65.63 19.25 54.76 1.74 48.9 19.25"/><polygon class="cls-2" points="47.92 22.19 36.77 55.52 65.37 22.19 47.92 22.19"/></g></g></svg>