<svg xmlns="http://www.w3.org/2000/svg" viewBox="0 0 339 57.6"><defs><style>.cls-1{fill:#cd00aa}.cls-2{fill:#ff4aca}.cls-3{fill:#ff81db}.cls-4{fill:#ff00ca}</style></defs><g id="Layer_2" data-name="Layer 2"><g id="Layer_1-2" data-name="Layer 1"><path class="cls-1" d="M108.7 17.2v28.2a11.7 11.7 0 0 1-.5 3.3 7.3 7.3 0 0 1-1.5 2.8 6.8 6.8 0 0 1-2.6 1.8 10.8 10.8 0 0 1-4 .7 11.6 11.6 0 0 1-1.8-.1 10.9 10.9 0 0 1-1.6-.4l.2-3.5a.8.8 0 0 1 .4-.7 4 4 0 0 1 1.3-.1 6 6 0 0 0 1.7-.2 2.4 2.4 0 0 0 1-.7 2.5 2.5 0 0 0 .6-1.1 7.5 7.5 0 0 0 .2-1.8V17.2zm1-8a3.7 3.7 0 0 1-.4 1.6 4.5 4.5 0 0 1-1 1.3 4.6 4.6 0 0 1-1.3.9 4.2 4.2 0 0 1-1.7.3 3.8 3.8 0 0 1-1.5-.3 4.6 4.6 0 0 1-1.4-.9 4.4 4.4 0 0 1-.9-1.3 3.8 3.8 0 0 1-.3-1.6 4.2 4.2 0 0 1 .3-1.6 4.3 4.3 0 0 1 1-1.4 4.4 4.4 0 0 1 1.2-.9 3.8 3.8 0 0 1 1.6-.3 4.2 4.2 0 0 1 1.7.3 4.4 4.4 0 0 1 1.3 1 4.3 4.3 0 0 1 1 1.3 4 4 0 0 1 .3 1.6zM126.6 16.8a15 15 0 0 1 5.5 1 12.2 12.2 0 0 1 4.3 2.8A12.3 12.3 0 0 1 139 25a17 17 0 0 1 1 5.8 17 17 0 0 1-1 5.9 12.5 12.5 0 0 1-2.7 4.4 12 12 0 0 1-4.3 2.8 15 15 0 0 1-5.5 1 15.2 15.2 0 0 1-5.6-1 12 12 0 0 1-4.2-2.8 12.7 12.7 0 0 1-2.8-4.5 16.5 16.5 0 0 1-1-5.8 16.4 16.4 0 0 1 1-5.8 12.5 12.5 0 0 1 2.7-4.4 12.1 12.1 0 0 1 4.3-2.9 15.2 15.2 0 0 1 5.6-1zm0 23a5.8 5.8 0 0 0 5-2.3q1.6-2.3 1.6-6.7t-1.6-6.7a5.7 5.7 0 0 0-5-2.4 5.9 5.9 0 0 0-5.1 2.4q-1.7 2.3-1.7 6.7t1.7 6.7a5.9 5.9 0 0 0 5 2.3zM150.6 20.5a19.3 19.3 0 0 1 1.7-1.5 11.2 11.2 0 0 1 2-1.2 10.8 10.8 0 0 1 2.1-.8 10.7 10.7 0 0 1 2.6-.2 9.8 9.8 0 0 1 4 .7 7.8 7.8 0 0 1 2.9 2.1 9.3 9.3 0 0 1 1.7 3.3 14 14 0 0 1 .6 4.2v17.4h-6.6V27a5.8 5.8 0 0 0-1.1-3.9A4.3 4.3 0 0 0 157 22a7 7 0 0 0-3.2.7 11.6 11.6 0 0 0-2.8 2.1v19.8h-6.6V17.2h4a1.6 1.6 0 0 1 1.7 1.2zM193.5 22a11.7 11.7 0 0 1 3-4 6.5 6.5 0 0 1 4.1-1.3 5 5 0 0 1 3 .8l-.4 5a1.3 1.3 0 0 1-.4.6 1 1 0 0 1-.6.2 7.8 7.8 0 0 1-1.2-.1 10 10 0 0 0-1.5-.2 5.6 5.6 0 0 0-2 .3 5 5 0 0 0-1.5 1 6.1 6.1 0 0 0-1.2 1.4 13 13 0 0 0-1 2v16.8h-6.5V17.2h3.9a2.1 2.1 0 0 1 1.4.3 2.2 2.2 0 0 1 .5 1.3zM214.2 9.2a3.7 3.7 0 0 1-.4 1.6 4.3 4.3 0 0 1-2.2 2.2 4.1 4.1 0 0 1-1.7.4 4 4 0 0 1-1.6-.4 4.2 4.2 0 0 1-2.2-2.2 3.8 3.8 0 0 1-.3-1.6 4.2 4.2 0 0 1 .3-1.6 4.3 4.3 0 0 1 .9-1.3 4.2 4.2 0 0 1 1.3-1A4 4 0 0 1 210 5a4.1 4.1 0 0 1 1.7.3 4.3 4.3 0 0 1 2.2 2.3 4 4 0 0 1 .4 1.6zm-1 8v27.3h-6.5V17.2zM225.3 20.5a19.3 19.3 0 0 1 1.8-1.5 11.2 11.2 0 0 1 1.9-1.2 10.9 10.9 0 0 1 2.2-.8 10.8 10.8 0 0 1 2.5-.2 9.7 9.7 0 0 1 4 .7 7.8 7.8 0 0 1 3 2.1 9.5 9.5 0 0 1 1.7 3.3 14 14 0 0 1 .6 4.2v17.4h-6.6V27a5.9 5.9 0 0 0-1.1-3.9 4.3 4.3 0 0 0-3.5-1.3 6.9 6.9 0 0 0-3.2.7 11.9 11.9 0 0 0-2.8 2.1v19.8h-6.6V17.2h4a1.6 1.6 0 0 1 1.7 1.2zM268 23a3.2 3.2 0 0 1-.6.6 1.4 1.4 0 0 1-.8.2 1.7 1.7 0 0 1-1-.3l-1.1-.7a9.4 9.4 0 0 0-1.6-.7 7.4 7.4 0 0 0-2.3-.3 6.9 6.9 0 0 0-3 .6 5.9 5.9 0 0 0-2.1 1.8 8.4 8.4 0 0 0-1.3 2.8 15.5 15.5 0 0 0-.4 3.8 15.2 15.2 0 0 0 .4 3.8 8.2 8.2 0 0 0 1.4 2.9 5.8 5.8 0 0 0 2.1 1.8 6.4 6.4 0 0 0 2.8.6 7 7 0 0 0 2.6-.4 8.2 8.2 0 0 0 1.6-.9l1.2-.8a1.7 1.7 0 0 1 1-.4 1.4 1.4 0 0 1 1.3.6l1.8 2.4a11.8 11.8 0 0 1-2.3 2.1A13.1 13.1 0 0 1 265 44a13.7 13.7 0 0 1-2.8.7 20.2 20.2 0 0 1-2.9.2 12 12 0 0 1-4.8-.9 11.3 11.3 0 0 1-3.9-2.7 13 13 0 0 1-2.6-4.5 17 17 0 0 1-1-6 17.2 17.2 0 0 1 .9-5.5 12.6 12.6 0 0 1 2.5-4.5 11.6 11.6 0 0 1 4.1-3 14.5 14.5 0 0 1 5.7-1 13.7 13.7 0 0 1 5.4 1 13.2 13.2 0 0 1 4.1 2.8zM280.8 9.2a3.7 3.7 0 0 1-.3 1.6 4.5 4.5 0 0 1-1 1.3 4.6 4.6 0 0 1-1.3 1 4.2 4.2 0 0 1-1.6.3 4 4 0 0 1-1.6-.4 4.5 4.5 0 0 1-1.3-.9 4.4 4.4 0 0 1-.9-1.3 3.8 3.8 0 0 1-.3-1.6 4.2 4.2 0 0 1 .3-1.6 4.2 4.2 0 0 1 2.2-2.2 4 4 0 0 1 1.6-.4 4.2 4.2 0 0 1 1.6.3 4.4 4.4 0 0 1 1.4 1 4.3 4.3 0 0 1 .9 1.3 4 4 0 0 1 .3 1.6zm-.9 8v27.3h-6.6V17.2zM285 21a16.2 16.2 0 0 1 11.4-4.3 11.1 11.1 0 0 1 4.3.8 9.1 9.1 0 0 1 3.2 2.2 9.3 9.3 0 0 1 2 3.3 12.8 12.8 0 0 1 .7 4.2v17.3h-3a3 3 0 0 1-1.5-.3 1.9 1.9 0 0 1-.8-1.2l-.6-2a23 23 0 0 1-2 1.7 11 11 0 0 1-2 1.1 10.6 10.6 0 0 1-2.2.8 13 13 0 0 1-2.7.2 10.4 10.4 0 0 1-3.2-.4A7 7 0 0 1 286 43a6.2 6.2 0 0 1-1.6-2.3 8.2 8.2 0 0 1-.6-3.2 6.4 6.4 0 0 1 .3-2 6 6 0 0 1 1.1-2 9.5 9.5 0 0 1 2-1.9 13.1 13.1 0 0 1 3.1-1.4 26.3 26.3 0 0 1 4.2-1 41.2 41.2 0 0 1 5.6-.4v-1.6a6 6 0 0 0-1.1-4 4.3 4.3 0 0 0-3.4-1.3 8 8 0 0 0-2.6.3 10.2 10.2 0 0 0-1.9.9l-1.4.8a2.9 2.9 0 0 1-1.5.4 1.9 1.9 0 0 1-1.1-.4 3 3 0 0 1-.8-.8zm15 11.8a36.3 36.3 0 0 0-4.7.5 13 13 0 0 0-3.1 1 4 4 0 0 0-1.7 1.2 2.8 2.8 0 0 0-.5 1.7 2.9 2.9 0 0 0 1 2.4 4.5 4.5 0 0 0 2.7.8 7.7 7.7 0 0 0 3.5-.8 10.5 10.5 0 0 0 2.9-2.2zM318.3 22a11.7 11.7 0 0 1 3-4 6.5 6.5 0 0 1 4.2-1.3 5 5 0 0 1 3 .8l-.5 5a1.3 1.3 0 0 1-.4.6 1 1 0 0 1-.6.2 7.9 7.9 0 0 1-1.2-.1 10 10 0 0 0-1.5-.2 5.5 5.5 0 0 0-2 .4 4.8 4.8 0 0 0-1.5.9 6.4 6.4 0 0 0-1.2 1.4 14 14 0 0 0-1 2v16.8H312V17.2h4a2.1 2.1 0 0 1 1.4.3 2.1 2.1 0 0 1 .5 1.3zM339 9.2a3.7 3.7 0 0 1-.3 1.6 4.5 4.5 0 0 1-1 1.3 4.6 4.6 0 0 1-1.3 1 4.2 4.2 0 0 1-1.6.3 4 4 0 0 1-1.7-.4 4.7 4.7 0 0 1-1.3-.9 4.6 4.6 0 0 1-.9-1.3 3.8 3.8 0 0 1-.3-1.6 4.2 4.2 0 0 1 .3-1.6 4.4 4.4 0 0 1 1-1.3 4.5 4.5 0 0 1 1.2-1 4 4 0 0 1 1.6-.3 4.2 4.2 0 0 1 1.7.3 4.4 4.4 0 0 1 1.3 1 4.3 4.3 0 0 1 1 1.3 4 4 0 0 1 .3 1.6zm-.9 8v27.3h-6.6V17.2z"/><path class="cls-2" d="M52 0H34.7l11.6 17.5L52.1 0z"/><path class="cls-1" d="M17.7 22.2H.3l28.6 33.3-11.2-33.3z"/><path class="cls-2" d="M19.4 17.5L31.1 0H13.5l5.9 17.5z"/><path class="cls-3" d="M22 19.3h21.7L33 2.9l-11 16.4zM32.8 57.6l11.9-35.4H21l11.8 35.4z"/><path class="cls-4" d="M0 19.3h16.7L11 1.6 0 19.3zM48.9 19.3h16.7L54.8 1.6l-5.9 17.6z"/><path class="cls-1" d="M48 22.2L36.7 55.5l28.6-33.3H47.9z"/></g></g></svg>