<?xml version="1.0" standalone="no"?>
<!DOCTYPE svg PUBLIC "-//W3C//DTD SVG 20010904//EN"
 "http://www.w3.org/TR/2001/REC-SVG-20010904/DTD/svg10.dtd">
<svg version="1.0" xmlns="http://www.w3.org/2000/svg"
 width="880.000000pt" height="1277.000000pt" viewBox="0 0 880.000000 1277.000000"
 preserveAspectRatio="xMidYMid meet">
<metadata>
Created by potrace 1.15, written by Peter Selinger 2001-2017
</metadata>
<g transform="translate(0.000000,1277.000000) scale(0.100000,-0.100000)"
fill="#000000" stroke="none">
<path d="M4610 12360 c-94 -12 -122 -26 -158 -78 -104 -153 -94 -289 33 -467
26 -36 70 -81 105 -107 123 -87 133 -80 -102 -74 -115 3 -208 4 -208 2 0 -2
49 -22 109 -45 109 -42 212 -97 218 -116 2 -6 -32 -25 -75 -43 -164 -67 -372
-219 -372 -271 0 -25 139 -167 234 -239 l48 -37 -6 -92 c-7 -114 -50 -377
-111 -669 -52 -254 -82 -347 -360 -1099 -97 -264 -204 -554 -236 -644 -33 -90
-62 -168 -65 -172 -2 -4 -23 -2 -45 6 -104 37 -209 48 -449 47 -142 -1 -302 4
-405 14 -329 29 -343 29 -405 1 -142 -64 -251 -228 -315 -472 -42 -164 -56
-365 -58 -875 -1 -256 1 -490 6 -520 l7 -55 -206 -230 c-113 -126 -335 -378
-492 -560 -157 -181 -313 -356 -347 -387 -116 -107 -355 -414 -422 -543 -83
-161 -87 -197 -70 -725 9 -296 -1 -510 -34 -685 -33 -172 -33 -344 0 -443 29
-89 134 -306 203 -420 230 -381 616 -749 928 -883 171 -74 340 -109 810 -169
422 -54 668 -93 890 -142 229 -49 339 -57 481 -33 136 22 401 89 499 125 232
86 398 208 492 365 49 81 68 132 123 330 26 94 51 174 55 179 5 5 117 -24 262
-69 501 -153 543 -160 998 -160 377 1 457 7 654 57 209 52 365 120 482 209 80
61 228 159 369 244 137 83 219 166 279 283 66 129 122 283 135 372 6 41 18
153 26 248 22 248 31 284 110 402 283 426 219 1012 -183 1680 -183 305 -408
592 -746 955 -213 229 -353 409 -421 544 -9 19 -21 66 -27 104 -18 131 -83
309 -224 615 -190 410 -227 559 -253 1027 -21 369 -61 513 -154 559 -34 16
-46 17 -93 8 -67 -14 -185 -71 -242 -117 -45 -36 -178 -85 -233 -85 -40 0 -71
33 -97 101 -28 77 -240 1160 -297 1519 -19 124 -54 329 -77 457 l-41 232 40
44 c23 24 44 53 47 65 5 15 26 26 79 42 40 12 110 40 157 62 177 84 455 198
481 198 34 0 193 51 251 81 88 45 148 108 148 157 0 33 -46 79 -98 97 -75 26
-204 30 -302 11 -142 -29 -190 -58 -328 -201 -67 -69 -126 -125 -131 -125 -5
0 -39 -22 -74 -49 -83 -64 -149 -96 -224 -111 -56 -11 -133 -7 -133 7 0 3 21
53 47 112 25 58 48 126 51 151 3 40 -1 52 -36 105 -49 73 -232 268 -301 321
-28 21 -51 43 -51 50 0 9 -80 38 -92 33 -2 -1 -28 -5 -58 -9z m87 -57 c61 -78
88 -218 79 -408 -3 -72 -9 -145 -12 -163 l-7 -33 -66 64 c-36 34 -94 82 -128
106 -108 75 -116 132 -49 339 l37 112 66 0 c51 0 69 -4 80 -17z m1478 -275
c51 -23 38 -92 -27 -142 -91 -68 -164 -97 -305 -121 -76 -13 -165 -26 -198
-30 l-60 -6 55 37 c30 21 113 80 183 132 176 130 274 166 352 130z m-1150
-130 c5 -75 -13 -260 -28 -275 -10 -9 -45 17 -65 49 -44 72 -35 162 28 261 44
70 57 63 65 -35z m-360 -525 c3 -21 15 -72 26 -114 17 -64 19 -81 8 -100 -15
-28 -133 -153 -170 -179 l-25 -19 -70 67 c-39 37 -96 81 -127 97 -31 17 -56
33 -54 36 1 3 34 35 73 72 81 76 176 137 213 137 14 0 44 9 66 19 54 26 53 26
60 -16z m275 -1030 c93 -655 235 -1286 330 -1474 l19 -36 -247 -123 c-203
-101 -710 -320 -741 -320 -5 0 -30 -12 -57 -27 -34 -19 -44 -29 -31 -31 19 -4
22 -29 7 -52 -9 -13 -15 -10 -38 15 -18 20 -35 29 -50 27 -12 -2 -22 -1 -22 2
0 4 26 59 59 124 32 64 70 153 84 197 34 102 121 418 147 532 19 81 96 326
371 1187 54 170 99 313 99 317 0 4 5 20 12 36 10 25 13 13 24 -99 7 -70 22
-194 34 -275z m996 -1519 c58 -33 71 -36 115 -31 46 6 50 4 73 -26 63 -84 138
-273 186 -469 45 -182 63 -325 64 -508 1 -197 -9 -237 -81 -299 -54 -48 -120
-74 -268 -107 -206 -45 -245 -66 -206 -107 11 -13 21 -26 21 -30 0 -29 -308
-52 -516 -37 -241 17 -341 57 -394 160 -27 53 -31 86 -34 285 -2 155 -6 190
-25 250 -50 153 -138 278 -231 325 -25 13 -74 25 -122 30 -44 4 -85 13 -91 19
-7 7 -12 34 -12 60 l0 48 200 67 c372 125 469 169 635 292 47 34 73 47 94 46
40 -3 194 24 301 53 126 35 201 29 291 -21z m-1292 -670 c9 -8 16 -19 16 -24
0 -26 -25 -66 -69 -110 -76 -76 -82 -103 -92 -395 -7 -238 -28 -455 -64 -655
-19 -106 -176 -854 -181 -859 -2 -2 -109 35 -239 83 -233 85 -236 85 -288 75
-28 -6 -142 -14 -252 -18 -154 -5 -199 -9 -197 -19 1 -7 -10 -17 -25 -23 -43
-17 -383 -4 -544 20 -140 22 -479 88 -486 95 -3 2 0 13 6 24 6 12 11 45 11 74
0 68 -26 113 -71 123 -19 4 -52 27 -79 54 -64 64 -72 100 -55 255 7 66 16 182
20 256 5 98 13 156 30 211 30 95 52 254 60 424 10 205 20 226 120 239 28 4
110 18 184 32 l134 25 48 -20 c61 -27 124 -27 287 0 257 41 341 50 534 56 277
8 469 -11 761 -79 135 -31 139 -31 170 -14 18 10 51 42 75 71 46 57 123 115
153 115 10 0 25 -7 33 -16z m1628 -1023 c326 -84 449 -208 828 -836 56 -93
124 -200 151 -236 99 -134 275 -279 339 -279 112 0 256 -259 427 -765 106
-315 133 -445 133 -640 0 -176 -38 -332 -123 -505 -34 -71 -233 -377 -336
-521 l-29 -39 -163 263 c-116 187 -187 290 -248 360 -47 53 -87 101 -89 105
-1 5 78 23 175 42 98 18 181 36 186 40 4 3 -55 42 -130 86 -162 94 -226 139
-248 176 -18 30 -14 43 22 72 39 30 15 42 -103 49 -59 3 -112 11 -117 16 -13
13 7 42 82 126 68 74 92 122 70 136 -8 5 -23 9 -35 9 -11 0 -29 9 -40 21 -16
18 -18 33 -15 93 9 184 7 230 -12 234 -26 5 -86 -65 -149 -172 -62 -106 -112
-166 -139 -166 -46 0 -47 96 -3 269 14 52 23 99 21 105 -2 5 -32 -26 -68 -69
-35 -44 -83 -100 -106 -125 -60 -65 -66 -54 -72 142 -7 181 -5 180 -56 19 -42
-133 -48 -185 -34 -257 10 -51 10 -66 -1 -78 -83 -101 -262 278 -300 634 -6
58 -13 106 -15 108 -8 8 -14 -73 -19 -248 -5 -192 -17 -262 -48 -268 -10 -2
-77 54 -176 147 -88 83 -162 151 -165 151 -3 0 19 -53 50 -117 60 -130 113
-276 113 -317 0 -35 -19 -33 -72 7 -84 64 -308 186 -308 167 0 -5 73 -84 163
-174 128 -130 183 -178 263 -229 152 -98 192 -172 114 -212 -36 -18 -84 -20
-265 -10 -155 9 -230 -4 -279 -48 -28 -24 -230 -357 -222 -365 10 -9 382 18
456 34 41 9 106 29 144 46 78 34 108 32 130 -11 28 -54 78 -49 227 20 64 29
112 44 149 47 51 4 58 2 88 -27 45 -44 70 -51 170 -51 78 0 92 -3 138 -29 94
-55 185 -176 224 -300 49 -154 4 -325 -96 -367 -18 -7 -76 -16 -131 -20 -170
-10 -238 -40 -231 -100 4 -35 51 -68 127 -91 198 -56 196 -140 -4 -203 -58
-18 -95 -42 -95 -60 0 -9 18 -31 40 -49 22 -17 40 -38 40 -45 0 -17 -42 -55
-120 -107 -44 -29 -59 -45 -48 -47 22 -4 264 60 353 94 95 36 124 44 129 35 3
-4 -15 -32 -39 -63 -76 -97 -89 -138 -44 -138 37 0 97 39 185 121 125 115 204
145 234 89 15 -28 4 -56 -40 -104 -63 -69 -88 -137 -55 -150 21 -8 40 1 113
51 35 24 70 43 78 43 59 0 -97 -231 -235 -345 -70 -59 -113 -83 -211 -116 -36
-12 -108 -37 -161 -55 -146 -51 -271 -67 -469 -61 -182 6 -271 22 -485 85 -71
22 -207 54 -302 72 -168 31 -174 33 -249 82 -42 28 -131 74 -198 103 -323 140
-405 205 -537 425 -90 152 -205 390 -240 499 -65 202 -102 525 -102 901 -1
346 21 539 85 740 17 52 83 228 148 390 194 485 200 511 204 860 3 197 7 271
20 326 31 130 95 201 246 273 107 51 179 70 520 132 399 73 447 85 454 114 20
79 241 107 438 56z m-2757 -1001 c226 -12 343 -24 430 -46 81 -20 208 -80 240
-114 45 -47 38 -110 -45 -381 -89 -290 -112 -499 -116 -1042 -1 -225 -5 -432
-9 -460 -31 -260 -105 -311 -341 -236 -64 20 -122 32 -164 33 -65 1 -65 1 -68
-28 -3 -25 14 -46 151 -180 183 -179 209 -220 211 -333 2 -79 20 -113 62 -113
35 0 54 -10 54 -29 0 -44 -118 -106 -225 -118 -37 -5 -70 -13 -72 -19 -2 -7
42 -27 104 -48 131 -46 177 -72 238 -137 58 -63 84 -119 85 -186 0 -64 -10
-91 -55 -151 -46 -59 -44 -86 7 -90 60 -5 81 -40 76 -127 -9 -129 -73 -252
-211 -402 -132 -144 -143 -180 -52 -176 61 2 156 48 230 111 64 55 93 68 102
46 11 -29 -9 -65 -73 -128 -108 -107 -288 -222 -388 -247 -44 -11 -51 -10 -95
14 -71 39 -213 91 -389 143 -266 78 -283 96 -134 134 48 12 51 30 6 41 -116
30 -670 52 -737 30 -20 -7 -38 -18 -38 -24 -1 -7 -2 -30 -3 -52 -1 -38 -2 -40
-37 -43 -66 -6 -233 56 -714 266 -174 76 -367 142 -414 142 -51 0 -122 68
-260 251 -129 170 -244 369 -270 466 -16 57 6 149 63 268 53 111 99 175 126
175 12 0 35 -21 60 -55 46 -63 65 -75 114 -75 44 0 90 37 108 88 31 89 5 541
-48 829 -30 167 -46 209 -82 216 -42 8 -104 58 -173 139 -68 79 -89 93 -89 56
0 -13 18 -147 39 -298 54 -380 67 -529 51 -603 -13 -64 -47 -111 -107 -148
-32 -20 -37 -21 -48 -6 -6 9 -17 53 -24 99 -6 46 -30 187 -52 315 l-40 232 27
113 c51 217 165 478 294 673 40 61 91 139 112 174 56 90 536 598 794 840 l215
201 392 3 c216 1 525 3 687 4 162 2 385 -2 495 -7z"/>
</g>
</svg>
